<!-- icon666.com - MILLIONS vector ICONS FREE --><svg id="Layer_1" viewBox="0 0 512 512" xmlns="http://www.w3.org/2000/svg" xmlns:xlink="http://www.w3.org/1999/xlink" data-name="Layer 1"><linearGradient id="GradientFill_1" gradientUnits="userSpaceOnUse" x1="98.656" x2="424.311" y1="399.054" y2="44.992"><stop offset="0" stop-color="#667abc"></stop><stop offset=".206" stop-color="#5e82c2"></stop><stop offset=".528" stop-color="#4998d3"></stop><stop offset=".924" stop-color="#27bcee"></stop><stop offset="1" stop-color="#20c4f4"></stop></linearGradient><path d="m.008 66.724a15.985 15.985 0 0 1 16-16h89.835a16 16 0 0 1 15.247 11.145l17.432 54.8h46.725a40.56 40.56 0 0 1 8.3-12.146l12.337-12.293a7.083 7.083 0 0 0 2.279-5.573v-17.433a39.932 39.932 0 0 1 39.8-39.794h17.454a7.012 7.012 0 0 0 5.508-2.287l12.339-12.288a39.835 39.835 0 0 1 56.292 0l12.331 12.288a7.018 7.018 0 0 0 5.516 2.287h17.439a39.844 39.844 0 0 1 39.8 39.794v17.433a7.063 7.063 0 0 0 2.287 5.573l12.331 12.288a40.16 40.16 0 0 1 8.3 12.146h58.442a16.024 16.024 0 0 1 15.246 20.862l-57.871 182.042a16 16 0 0 1 -15.254 11.145h-253.43a28.936 28.936 0 0 0 0 57.871h224.807a15.775 15.775 0 0 1 8.009 2.143l47.29 27.293a16.008 16.008 0 0 1 -8.031 29.863 16.225 16.225 0 0 1 -7.987-2.143l-43.567-25.22h-24.514a44.607 44.607 0 1 1 -18.74 0h-131.5a44.621 44.621 0 1 1 -18.74 0h-27.027a60.9 60.9 0 0 1 -20.719-118.17l-69.837-219.623h-78.137a16.03 16.03 0 0 1 -16-16zm278.635 52.8a16 16 0 1 0 0-32.008h-.007a16 16 0 0 0 .007 32.008zm17.583 62.729 56.574-80.807a16 16 0 1 0 -26.22-18.361l-56.57 80.8a16.006 16.006 0 0 0 3.929 22.291 15.646 15.646 0 0 0 9.167 2.929 16.064 16.064 0 0 0 13.117-6.858zm47.947-4.359a16 16 0 1 0 0-32.007h-.007a16 16 0 0 0 .007 32.007zm82.255 120.814 47.7-150.034h-36.555a39.459 39.459 0 0 1 -8.309 12.145l-12.331 12.36a6.915 6.915 0 0 0 -2.287 5.5v17.433a39.844 39.844 0 0 1 -39.8 39.8h-17.441a7.017 7.017 0 0 0 -5.516 2.286l-12.331 12.36a39.835 39.835 0 0 1 -56.292 0l-12.339-12.36a7.011 7.011 0 0 0 -5.508-2.286h-17.454a39.81 39.81 0 0 1 -39.8-39.8v-17.434a6.934 6.934 0 0 0 -2.279-5.5l-12.339-12.36a39.7 39.7 0 0 1 -8.3-12.145h-36.562l47.715 150.033z" fill="url(#GradientFill_1)" fill-rule="evenodd"></path></svg>